<?xml version="1.0" encoding="utf-8"?>
<!-- Generator: Adobe Illustrator 27.9.0, SVG Export Plug-In . SVG Version: 6.00 Build 0)  -->
<svg version="1.1" id="b" xmlns="http://www.w3.org/2000/svg" xmlns:xlink="http://www.w3.org/1999/xlink" x="0px" y="0px"
	 viewBox="0 0 48 48" style="enable-background:new 0 0 48 48;" xml:space="preserve">
<style type="text/css">
	.st0{fill:none;stroke:#FFFFFF;stroke-width:2;stroke-linecap:round;stroke-linejoin:round;}
</style>
<path class="st0" d="M17.6,34.2c-0.9,1.3-1.9,2.6-2.9,3.8c-7.4-0.2-10.2-5-10.2-5c0.1-6.8,1.7-13.5,4.8-19.5c2.7-2.1,6-3.3,9.4-3.5
	l1,2.3c1.4-0.2,2.9-0.3,4.3-0.3c1.4,0,2.9,0.1,4.3,0.3l1-2.3c3.4,0.2,6.7,1.4,9.4,3.5c3.1,6.1,4.7,12.7,4.8,19.5c0,0-2.8,4.8-10.2,5
	c-1-1.2-2-2.5-2.9-3.8 M36.9,31.3c-3.8,1.9-7.6,3.9-12.9,3.9s-9.1-1.9-12.9-3.9"/>
<line class="st0" x1="15.3" y1="28.7" x2="20.3" y2="23.7"/>
<line class="st0" x1="15.3" y1="23.7" x2="20.3" y2="28.7"/>
<line class="st0" x1="27.7" y1="28.7" x2="32.7" y2="23.7"/>
<line class="st0" x1="27.7" y1="23.7" x2="32.7" y2="28.7"/>
</svg>
