<?xml version="1.0" encoding="utf-8"?>
<!-- Generator: Adobe Illustrator 27.9.0, SVG Export Plug-In . SVG Version: 6.00 Build 0)  -->
<svg version="1.1" id="Layer_2_00000167381477648071081370000004731239050887055514_"
	 xmlns="http://www.w3.org/2000/svg" xmlns:xlink="http://www.w3.org/1999/xlink" x="0px" y="0px" viewBox="0 0 48 48"
	 style="enable-background:new 0 0 48 48;" xml:space="preserve">
<style type="text/css">
	.st0{fill:none;stroke:#FFFFFF;stroke-width:2;stroke-linecap:round;stroke-linejoin:round;}
</style>
<path class="st0" d="M40.1,13.8L40.1,13.8c6.2-7.2-2.7-8.3-2.7-8.3c2.9,3.9,1.3,4.9,0.2,5.8l-0.1,0.1C33,8.6,27,9.8,24,14.3
	c-1.9-2.7-4.9-4.4-8.2-4.4l0,0c-1.9,0-3.7,0.5-5.3,1.6l-0.1-0.1c-1.1-0.9-2.7-2,0.2-5.8c0,0-8.9,1.2-2.7,8.3l0,0
	C5,17.5,5.1,22.6,8,26.2l0,0l16,16.3l15.8-16.1l0.1-0.1l0.1-0.1l0,0C42.9,22.6,43,17.5,40.1,13.8L40.1,13.8z"/>
</svg>
