<?xml version="1.0" encoding="UTF-8"?><svg id="b" xmlns="http://www.w3.org/2000/svg" viewBox="0 0 939.1904 279.0301"><defs><style>.d{fill:#882b9a;stroke-width:0px;}.e{fill:none;stroke:#fff;stroke-linecap:round;stroke-linejoin:round;stroke-width:5px;}</style></defs><g id="c"><path class="d" d="m0,250.2072V117.9211h41.7646c-.3789,9.0713-1.8906,12.6616-5.4805,18.709h15.874c4.1572-13.0396,12.8506-21.7324,27.2129-21.7324,20.9766,0,34.2051,20.2207,34.2051,50.8354s-14.1729,50.8359-34.2051,50.8359c-15.3076,0-23.2441-9.0713-27.2129-21.9219h-15.874c5.1016,7.748,8.5039,17.0083,8.5039,29.481v26.0791H0Zm66.71-84.8521c0-15.6855-4.5361-22.1108-11.3389-22.1108s-11.3389,6.4253-11.3389,22.1108,4.5352,22.8667,11.3389,22.8667,11.3389-7.1812,11.3389-22.8667Z"/><path class="d" d="m123.208,181.7966v-63.8755h46.3008v56.5054c0,6.6143,3.9688,10.0156,8.3154,10.0156s7.9365-3.4014,7.9365-10.0156v-56.5054h45.3555v95.4351h-41.0088c0-4.5356.9453-10.9609,5.6689-20.0317h-14.9287c-4.7246,15.4961-14.3623,23.2446-28.9141,23.2446-17.1973,0-28.7256-10.394-28.7256-34.7725Z"/><path class="d" d="m244.9072,250.2072V117.9211h41.7646c-.3789,9.0713-1.8906,12.6616-5.4805,18.709h15.874c4.1572-13.0396,12.8506-21.7324,27.2129-21.7324,20.9766,0,34.2051,20.2207,34.2051,50.8354s-14.1729,50.8359-34.2051,50.8359c-15.3076,0-23.2441-9.0713-27.2129-21.9219h-15.874c5.1016,7.748,8.5039,17.0083,8.5039,29.481v26.0791h-44.7881Zm66.71-84.8521c0-15.6855-4.5361-22.1108-11.3389-22.1108s-11.3389,6.4253-11.3389,22.1108,4.5352,22.8667,11.3389,22.8667,11.3389-7.1812,11.3389-22.8667Z"/><path class="d" d="m365.6582,165.5441c0-30.6147,14.1729-50.8354,33.4492-50.8354,15.6855,0,23.8115,9.0708,27.9688,21.9214h15.875c-5.1025-7.748-8.3154-17.0078-8.3154-29.481v-26.0791h44.5996v132.2861h-41.7646c.3779-7.748,1.8896-12.6616,5.4805-18.709h-15.875c-4.1572,13.0396-12.6611,21.7329-27.9688,21.7329-20.0322,0-33.4492-20.2212-33.4492-50.8359Zm69.5449-.189c0-15.6855-4.5361-22.1108-11.3389-22.1108s-11.3389,6.4253-11.3389,22.1108,4.5352,22.8667,11.3389,22.8667,11.3389-7.1812,11.3389-22.8667Z"/><path class="d" d="m492.8359,213.3562v-95.4351h40.252c0,11.1499-1.7002,21.166-7.1807,31.7485h16.0635c2.6455-24.1895,11.5273-34.772,25.7012-34.772,4.9131,0,7.5586.3779,10.9609,1.1338v40.6309c-5.6699-1.1343-10.2051-1.7012-15.3076-1.7012-17.3867,0-24.1895,10.0161-24.1895,24.5674v33.8276h-46.2998Z"/><path class="d" d="m583.7314,165.7331c0-31.5596,22.2998-51.2134,58.2061-51.2134,36.0947,0,58.9609,19.8428,58.9609,51.2134s-22.8662,51.0249-58.9609,51.0249c-35.9062,0-58.2061-19.4653-58.2061-51.0249Zm68.9775-.3779c0-16.0635-3.4014-22.1108-10.583-22.1108s-10.2051,6.0474-10.2051,22.1108,3.0234,22.6777,10.2051,22.6777,10.583-6.6143,10.583-22.6777Z"/><path class="d" d="m710.9082,213.3562v-95.4351h41.7646c-.5674,7.5591-2.835,14.9297-7.3711,21.9219h15.4971c3.5898-14.3628,11.9053-25.1343,27.9688-25.1343,16.8193,0,30.6152,10.3936,30.6152,34.772v63.8755h-46.1113v-56.8828c0-6.4253-3.5908-9.6382-8.3154-9.6382-4.5352,0-7.9375,3.2129-7.9375,9.6382v56.8828h-46.1104Z"/><path class="d" d="m828.6377,164.9772c0-29.8589,22.2998-50.4575,54.8037-50.4575,39.3086,0,58.2061,23.2441,54.0488,58.9614h-64.6318c0,10.394,3.5908,15.1187,10.7725,15.1187,6.9922,0,10.9609-4.5356,13.417-11.1499l42.1426,10.2051c-8.3145,18.1421-24.9453,29.103-55.3711,29.103-35.1504,0-55.1816-18.5205-55.1816-51.7808Zm65.5762-10.394c.3779-8.3149-3.7803-13.7954-10.3945-13.7954-6.8027,0-10.3936,4.5356-10.583,13.7954h20.9775Z"/><path class="e" d="m467.6067,62.7074c-46.2634,0-83.7623,36.7422-83.7623,83.0056"/><path class="e" d="m435.2059,276.5301c-11.8074-4.6972-23.3877-13.5938-29.446-20.986l-5.6821-40.8606c5.9008,11.3999,14.124,21.2208,23.9517,29.9509l16.0012-2.8278s7.7012-3.5362,27.576-3.5362"/><line class="e" x1="446.4376" y1="276.5301" x2="435.2059" y2="276.5301"/><polygon class="e" points="363.2323 181.9037 334.3262 7.7252 343.4837 2.5 383.8444 145.713 394.6734 157.0539 400.0777 214.6835 363.2323 181.9037"/><path class="e" d="m383.8444,143.7198c-5.0221-92.5226-9.0075-118.723,17.5718-127.5827,20.9102-6.9701,40.7771,31.2423,48.1339,45.3055"/><polyline class="e" points="440.0306 241.8066 446.4376 276.5301 467.6067 276.5301"/><polyline class="e" points="405.7598 255.5441 325.3514 116.4224 327.6131 92.3097 355.761 136.8845"/><path class="e" d="m467.6067,62.7074c46.2634,0,83.7623,36.7422,83.7623,83.0056"/><path class="e" d="m500.0074,276.5301c11.8074-4.6972,23.3877-13.5938,29.446-20.986l5.6821-40.8606c-5.9008,11.3999-14.124,21.2208-23.9517,29.9509l-16.0012-2.8278s-7.7012-3.5362-27.576-3.5362"/><line class="e" x1="488.7757" y1="276.5301" x2="500.0074" y2="276.5301"/><polygon class="e" points="571.981 181.9037 600.8871 7.7252 591.7296 2.5 551.3689 145.713 540.5399 157.0539 535.1356 214.6835 571.981 181.9037"/><path class="e" d="m551.3689,143.7198c5.0221-92.5226,9.0075-118.723-17.5718-127.5827-20.9102-6.9701-40.7771,31.2423-48.1339,45.3055"/><polyline class="e" points="495.1827 241.8066 488.7757 276.5301 467.6067 276.5301"/><polyline class="e" points="529.4535 255.5441 609.8619 116.4224 607.6002 92.3097 579.4523 136.8845"/><circle class="e" cx="467.6067" cy="151.4475" r="33.4614"/><path class="e" d="m719.1274,124.6248h38.1287c-.5664,7.559-2.8342,14.9287-7.3698,21.9209"/><polyline class="e" points="7.5178 186.8826 7.5178 242.4072 47.1782 242.4072"/><path class="e" d="m920.1906,137.1824c6.1565,6.9139,9.2631,16.6797,9.1372,28.5302h-35.9588"/><polyline class="e" points="133.9021 124.8011 162.9115 124.8011 162.9115 172.659"/></g></svg>