<?xml version="1.0" encoding="utf-8"?>
<!-- Generator: Adobe Illustrator 27.9.0, SVG Export Plug-In . SVG Version: 6.00 Build 0)  -->
<svg version="1.1" id="Layer_1" xmlns="http://www.w3.org/2000/svg" xmlns:xlink="http://www.w3.org/1999/xlink" x="0px" y="0px"
	 viewBox="0 0 48 48" style="enable-background:new 0 0 48 48;" xml:space="preserve">
<style type="text/css">
	.st0{fill:none;stroke:#FFFFFF;stroke-width:2;stroke-linecap:round;stroke-linejoin:round;}
</style>
<path class="st0" d="M41.1,20.4c0,6.3-1,8.4-2.9,10.2C34.3,34.2,24,33.9,24,33.9c-2.3,0-4.7-0.1-7-0.5c0,0-1.1,7.4,13.1,3.8
	l-0.1,4.2c-2.2,0.3-22.8,7.9-23-18.7l-0.1-2.4c0-6.3,0.1-8.5,2.9-11.6C13.4,4.9,24,5.4,24,5.4s10.6-0.5,14.2,3.4
	C41,11.9,41.1,14.1,41.1,20.4"/>
<path class="st0" d="M24,23.3v-6c0-2.6-2.1-4.7-4.7-4.7c0,0,0,0,0,0l0,0c-2.6,0-4.7,2.1-4.7,4.7V27"/>
<path class="st0" d="M24,17.3c0-2.6,2.1-4.7,4.7-4.7c0,0,0,0,0,0l0,0c2.6,0,4.7,2.1,4.7,4.7l0,0V27"/>
</svg>
