<?xml version="1.0" encoding="utf-8"?>
<!-- Generator: Adobe Illustrator 27.9.0, SVG Export Plug-In . SVG Version: 6.00 Build 0)  -->
<svg version="1.1" id="b" xmlns="http://www.w3.org/2000/svg" xmlns:xlink="http://www.w3.org/1999/xlink" x="0px" y="0px"
	 viewBox="0 0 48 48" style="enable-background:new 0 0 48 48;" xml:space="preserve">
<style type="text/css">
	.st0{fill:none;stroke:#FFFFFF;stroke-width:2;stroke-linecap:round;stroke-linejoin:round;}
</style>
<path class="st0" d="M38.7,16.5v1c0,10.1-7.6,21.6-21.6,21.6C13,39.2,9,38,5.5,35.7c0.6,0.1,1.2,0.1,1.8,0.1c3.4,0,6.8-1.1,9.4-3.2
	c-3.3,0-6.1-2.2-7.1-5.3c0.5,0.1,1,0.1,1.4,0.1c0.7,0,1.4-0.1,2-0.3C9.5,26.5,7,23.3,7,19.7v-0.1c1.1,0.6,2.2,0.9,3.4,0.9
	C7.1,18.4,6.1,14,8.1,10.5c3.9,4.8,9.6,7.6,15.7,7.9c-0.1-0.6-0.2-1.1-0.2-1.7c-0.1-4.2,3.1-7.7,7.3-7.8c2.2-0.1,4.4,0.8,5.9,2.5
	c1.7-0.3,3.3-1,4.8-1.9c-0.6,1.8-1.8,3.3-3.4,4.3c1.5-0.2,3-0.6,4.4-1.3C41.5,14.1,40.2,15.4,38.7,16.5z"/>
<line class="st0" x1="30.4" y1="16.5" x2="32.8" y2="14"/>
<line class="st0" x1="30.4" y1="14" x2="32.8" y2="16.5"/>
</svg>
