<?xml version="1.0" encoding="utf-8"?>
<!-- Generator: Adobe Illustrator 28.0.0, SVG Export Plug-In . SVG Version: 6.00 Build 0)  -->
<svg version="1.1" id="Layer_1" xmlns="http://www.w3.org/2000/svg" xmlns:xlink="http://www.w3.org/1999/xlink" x="0px" y="0px"
	 viewBox="0 0 48 48" style="enable-background:new 0 0 48 48;" xml:space="preserve">
<style type="text/css">
	.st0{fill:none;stroke:#FFFFFF;stroke-width:2;stroke-linecap:round;stroke-linejoin:round;}
</style>
<path class="st0" d="M24,32.2c0-0.2,0.1,0,0.2,0.5c0.9,2.6,4.3,12.6,12.1,4.6c4.1-4.2,2.2-8.5-5.3-9.7c4.3,0.7,9.1-0.5,10.4-5.2
	c0.4-1.4,1-9.8,1-10.9c0-5.7-5-3.9-8-1.6C30.2,13.1,25.7,19.5,24,23c-1.7-3.5-6.2-10-10.5-13.1c-3.1-2.3-8-4.1-8,1.6
	c0,1.1,0.6,9.5,1,10.9c1.3,4.7,6.1,5.9,10.4,5.2c-7.5,1.3-9.4,5.5-5.3,9.7c7.8,8,11.2-2,12.1-4.6C23.9,32.2,24,32,24,32.2L24,32.2z"
	/>
</svg>
