<?xml version="1.0" encoding="utf-8"?>
<!-- Generator: Adobe Illustrator 27.9.0, SVG Export Plug-In . SVG Version: 6.00 Build 0)  -->
<svg version="1.1" id="Layer_1" xmlns="http://www.w3.org/2000/svg" xmlns:xlink="http://www.w3.org/1999/xlink" x="0px" y="0px"
	 viewBox="0 0 48 48" style="enable-background:new 0 0 48 48;" xml:space="preserve">
<style type="text/css">
	.st0{fill:none;stroke:#FFFFFF;stroke-width:2;stroke-linecap:round;stroke-linejoin:round;}
</style>
<path class="st0" d="M16.4,22.5c-1.7,0-3.1,1.4-3.1,3.1s1.4,3.1,3.1,3.1s3.1-1.4,3.1-3.1C19.5,23.9,18.2,22.5,16.4,22.5z M31.5,22.5
	c-1.7,0-3.1,1.4-3.1,3.1c0,0,0,0,0,0l0,0c0,1.7,1.4,3.1,3.1,3.1c1.7,0,3.1-1.4,3.1-3.1C34.7,23.9,33.3,22.5,31.5,22.5
	C31.6,22.5,31.6,22.5,31.5,22.5z M14.8,32.7c3.8,2.6,8.6,3.5,13.1,2.4c2-0.5,3.9-1.3,5.5-2.5 M20,17.1c0.5-0.1,1.6-0.2,2.2-0.2
	s1.2,0,1.8,0c3.9,0,7.7,0.7,11.3,2.2c0.8-1.3,2.2-2.1,3.7-2.2c2.6,0.1,4.6,2.2,4.5,4.8l0,0c0,1.1-0.4,2.2-1.1,3.1
	c0.7,1.1,1,2.4,1.1,3.8c0,6.5-8.7,11.7-19.5,11.7l0,0C13.2,40.2,4.5,35,4.5,28.5l0,0c0-1.3,0.4-2.6,1.1-3.8c-0.7-0.9-1.1-2-1.1-3.1
	c-0.1-2.6,1.9-4.7,4.5-4.8l0,0c1.5,0,3,0.8,3.8,2.2C15.1,18,17.5,17.4,20,17.1z"/>
<polyline class="st0" points="25.2,11 20.4,10.2 21.8,16.8 "/>
<circle class="st0" cx="28.7" cy="11.3" r="3.5"/>
</svg>
