<?xml version="1.0" encoding="utf-8"?>
<!-- Generator: Adobe Illustrator 27.9.0, SVG Export Plug-In . SVG Version: 6.00 Build 0)  -->
<svg version="1.1" id="Layer_2_00000106846247909890731200000004982832244126828420_"
	 xmlns="http://www.w3.org/2000/svg" xmlns:xlink="http://www.w3.org/1999/xlink" x="0px" y="0px" viewBox="0 0 48 48"
	 style="enable-background:new 0 0 48 48;" xml:space="preserve">
<style type="text/css">
	.st0{fill:none;stroke:#FFFFFF;stroke-width:2;stroke-linecap:round;stroke-linejoin:round;}
</style>
<path class="st0" d="M40.8,8.5c1.1,0,2,1,1.5,2.9l-5.6,26.3c-0.4,1.9-1.5,2.3-3.1,1.5l-13.3-9.8c-0.2-0.1-0.2-0.4-0.1-0.6
	c0,0,0.1-0.1,0.1-0.1l15.4-13.9c0.7-0.6-0.2-0.9-1.1-0.4L15.4,26.5c-0.1,0.1-0.3,0.1-0.4,0L6.8,24C5,23.5,5,22.2,7.2,21.3L40,8.7
	C40.3,8.6,40.5,8.5,40.8,8.5z"/>
</svg>
